# xmcd CD database file
#
# Track frame offsets:
#	150
#	16910
#	33232
#	50505
#	69885
#	89290
#	105315
#	118497
#	135400
#	161335
#
# Disc length: 2337 seconds
#
# Revision: 0
# Processed by: cddbd v1.5PL3 Copyright (c) Steve Scherf et al.
# Submitted via: CDex 1.51
#
DISCID=74091f0a
DTITLE=ガンジンルー - あすなろの詩
DYEAR=2003
DGENRE=Rock
TTITLE0=俺の気持ちは溢れて手に負えなくなった
TTITLE1=あすなろ
TTITLE2=満月回顧録
TTITLE3=夜明けのレクイエム
TTITLE4=グッバイラン
TTITLE5=前略、おふくろ様
TTITLE6=ぶってんじゃねぇよ
TTITLE7=与太郎賛歌〜酔っ払いの男〜
TTITLE8=俺あんたで良かった
TTITLE9=出会った頃のままで
EXTD=YEAR: 2003
EXTT0=
EXTT1=
EXTT2=
EXTT3=
EXTT4=
EXTT5=
EXTT6=
EXTT7=
EXTT8=
EXTT9=
PLAYORDER=
